Coordinates
version=1
nRows=39
nColumns=18
inDegrees=yes

Units are S.I. units (second, meters, Newtons, ...)
If the header above contains a line with 'inDegrees', this indicates whether rotational values are in degrees (yes) or radians (no).

endheader
time	ground_thorax_rot_x	ground_thorax_rot_y	ground_thorax_rot_z	ground_thorax_tx	ground_thorax_ty	ground_thorax_tz	clav_prot	clav_elev	scapula_abduction	scapula_elevation	scapula_upward_rot	scapula_winging	plane_elv	shoulder_elv	axial_rot	elbow_flexion	pro_sup
      2.22000000	      0.87717326	     -8.95211307	    -11.80209645	      0.00000000	      0.00000000	      0.00000000	    -20.92136644	      1.97632935	     -7.24857517	     -0.91067081	     19.80764582	      1.97239429	    -16.94430678	     10.50395172	     48.77344871	      0.00000000	     34.32000000
      2.23000000	      0.96510146	     -9.22973197	    -11.78743420	      0.00000000	      0.00000000	      0.00000000	    -20.63382014	      0.50681293	     -6.43085635	     -1.93280365	     19.54812743	      2.28693847	    -20.39410045	     11.70684301	     50.02804119	      0.00000000	     34.32000000
      2.24000000	      1.59528478	     -9.38072452	    -11.69360588	      0.00000000	      0.00000000	      0.00000000	    -20.67726472	     -0.04953894	     -6.26592525	     -2.37843848	     19.65564631	      2.37765818	    -20.64724476	     12.59025689	     50.05616478	      0.00000000	     34.32000000
      2.25000000	      1.71802376	     -9.50749393	    -11.65848673	      0.00000000	      0.00000000	      0.00000000	    -20.53595616	     -0.70152464	     -5.96497569	     -2.80750591	     19.43853037	      2.57422267	    -21.20188743	     13.28066224	     49.99502058	      0.00000000	     34.32000000
      2.26000000	      1.28143197	     -9.50098643	    -11.44934603	      0.00000000	      0.00000000	      0.00000000	    -20.13911327	     -1.36928490	     -5.49031243	     -3.13241680	     18.79596495	      2.87064432	    -22.77373190	     14.08252832	     46.65881964	      0.00000000	     34.32000000
      2.27000000	      1.08484072	     -9.16589726	    -11.43819273	      0.00000000	      0.00000000	      0.00000000	    -19.85550425	     -1.97507837	     -5.53098319	     -3.30158586	     17.68435057	      3.28917783	    -21.37457431	     15.76376126	     36.88050133	      0.00000000	     34.32000000
      2.28000000	      1.50483153	     -8.87067333	    -11.39571254	      0.00000000	      0.00000000	      0.00000000	    -19.49229415	     -2.02190792	     -5.16322460	     -3.20529736	     17.23181471	      3.37585263	    -21.46192859	     16.46619477	     37.15003921	      0.00000000	     34.32000000
      2.29000000	      1.09232877	     -8.54339924	    -11.24023289	      0.00000000	      0.00000000	      0.00000000	    -18.80781310	     -2.93383749	     -4.70384729	     -3.45814291	     15.63551050	      3.94381184	    -21.27648945	     17.90956998	     33.64591888	      0.00000000	     34.32000000
      2.30000000	      1.61360992	     -8.50202980	    -11.20868839	      0.00000000	      0.00000000	      0.00000000	    -18.27055615	     -2.73307650	     -3.59822400	     -3.36601945	     15.98172568	      3.71113113	    -22.29469618	     18.01512143	     35.23284511	      0.00000000	     34.32000000
      2.31000000	      1.54971377	     -8.30552237	    -11.25313746	      0.00000000	      0.00000000	      0.00000000	    -18.08518187	     -2.97187712	     -3.31634205	     -3.49412839	     15.80973733	      3.78963903	    -22.09481945	     18.02359208	     37.40585283	      0.00000000	     34.32000000
      2.32000000	      1.59592243	     -8.12094966	    -11.14192398	      0.00000000	      0.00000000	      0.00000000	    -18.11223433	     -2.79960267	     -3.65159228	     -3.26217136	     15.40772313	      3.85230746	    -19.90269966	     18.34899448	     33.96059701	      0.00000000	     34.32000000
      2.33000000	      1.54536698	     -8.33600820	    -11.20203629	      0.00000000	      0.00000000	      0.00000000	    -17.96500449	     -2.82388996	     -3.32811375	     -3.29753258	     15.50308620	      3.80744028	    -19.89781570	     18.21624933	     34.42579195	      0.00000000	     34.32000000
      2.34000000	      1.51457597	     -8.41413151	    -11.23713459	      0.00000000	      0.00000000	      0.00000000	    -17.97883223	     -2.85404924	     -3.32699759	     -3.32875509	     15.53279724	      3.81070148	    -19.87474555	     18.24034094	     34.44536659	      0.00000000	     34.32000000
      2.35000000	      1.37486191	     -8.35384482	    -11.39472253	      0.00000000	      0.00000000	      0.00000000	    -18.01404762	     -3.18355162	     -3.37321075	     -3.55281299	     15.42318074	      3.93680679	    -20.11895410	     18.37577508	     35.04062341	      0.00000000	     34.32000000
      2.36000000	      1.40671720	     -8.20092351	    -11.42614233	      0.00000000	      0.00000000	      0.00000000	    -18.13516126	     -3.21294959	     -3.58656072	     -3.57817269	     15.41084086	      3.96985978	    -19.81268099	     18.46722629	     34.13192787	      0.00000000	     34.32000000
      2.37000000	      1.38315432	     -8.14481501	    -11.37376036	      0.00000000	      0.00000000	      0.00000000	    -18.18745000	     -3.15224843	     -3.79823829	     -3.49039511	     15.23767784	      4.00689196	    -18.45340891	     18.45077613	     31.99685619	      0.00000000	     34.32000000
      2.38000000	      1.30115667	     -8.16248098	    -11.41337203	      0.00000000	      0.00000000	      0.00000000	    -18.22411779	     -3.20369492	     -3.82776665	     -3.54083830	     15.27450635	      4.01808329	    -17.86585226	     17.91145034	     31.11048377	      0.00000000	     34.32000000
      2.39000000	      1.42860112	     -8.28756696	    -11.43811720	      0.00000000	      0.00000000	      0.00000000	    -18.33937414	     -3.07136907	     -3.75230861	     -3.57703796	     15.78780104	      3.86720354	    -19.38960281	     16.02958389	     43.52695591	      0.00000000	     34.32000000
      2.40000000	      1.31555541	     -8.30334070	    -11.45384124	      0.00000000	      0.00000000	      0.00000000	    -18.31881901	     -3.32670310	     -3.79840358	     -3.70902411	     15.54814358	      3.99869270	    -20.04789344	     15.39042400	     46.99583292	      0.00000000	     34.32000000
      2.41000000	      1.24429198	     -8.27127014	    -11.42158572	      0.00000000	      0.00000000	      0.00000000	    -18.27784544	     -3.55163015	     -3.82845629	     -3.81175709	     15.28824961	      4.12405669	    -20.79560282	     15.12681068	     48.42199512	      0.00000000	     34.32000000
      2.42000000	      1.39842824	     -8.25979301	    -11.45096681	      0.00000000	      0.00000000	      0.00000000	    -18.25547556	     -3.56310237	     -3.82630203	     -3.80228584	     15.22175943	      4.14071613	    -20.79248931	     15.00778957	     48.42529547	      0.00000000	     34.32000000
      2.43000000	      1.34858423	     -8.12031899	    -11.42839078	      0.00000000	      0.00000000	      0.00000000	    -18.36225719	     -3.63800858	     -4.07506871	     -3.83104270	     15.08980425	      4.21501664	    -21.50359342	     14.28950152	     53.37540661	      0.00000000	     34.32000000
      2.44000000	      1.22368106	     -8.05527280	    -11.51297335	      0.00000000	      0.00000000	      0.00000000	    -18.39736784	     -3.92292424	     -4.32549728	     -3.93945504	     14.65948169	      4.41620844	    -19.78498790	     14.78392255	     47.23635536	      0.00000000	     34.32000000
      2.45000000	      1.35988751	     -8.11264529	    -11.43237715	      0.00000000	      0.00000000	      0.00000000	    -18.36112838	     -3.71504299	     -4.11877657	     -3.86215271	     14.98252640	      4.26519265	    -21.58709397	     14.03860565	     54.39341154	      0.00000000	     34.32000000
      2.46000000	      1.35440922	     -7.94497436	    -11.60915471	      0.00000000	      0.00000000	      0.00000000	    -18.60791336	     -3.89203264	     -4.73367385	     -3.91338296	     14.60704704	      4.45529375	    -19.57061401	     14.16040683	     55.61252882	      0.00000000	     34.32000000
      2.47000000	      1.19100719	     -7.97031206	    -11.49261763	      0.00000000	      0.00000000	      0.00000000	    -18.52092317	     -3.97463026	     -4.52588945	     -3.98729815	     14.66671481	      4.45080595	    -20.99313595	     14.25957628	     53.08139402	      0.00000000	     34.32000000
      2.48000000	      1.21604864	     -8.00747389	    -11.46805094	      0.00000000	      0.00000000	      0.00000000	    -18.53215326	     -3.96138887	     -4.53924201	     -3.98165932	     14.68223191	      4.44470469	    -20.99698181	     14.29443829	     53.08472710	      0.00000000	     34.32000000
      2.49000000	      1.27156059	     -7.94875256	    -11.48593267	      0.00000000	      0.00000000	      0.00000000	    -18.61746394	     -4.04203421	     -4.76221589	     -4.00758271	     14.52667153	      4.52290569	    -19.54458703	     14.96600117	     46.24702405	      0.00000000	     34.32000000
      2.50000000	      1.24348564	     -7.93526846	    -11.44895421	      0.00000000	      0.00000000	      0.00000000	    -18.64288766	     -4.22399299	     -4.89231459	     -4.09180918	     14.30962226	      4.63831881	    -19.65242971	     15.26710262	     45.38661594	      0.00000000	     34.32000000
      2.51000000	      1.41653350	     -8.03344059	    -11.45713879	      0.00000000	      0.00000000	      0.00000000	    -18.61451507	     -4.15176086	     -4.70227716	     -4.10347730	     14.57462156	      4.54413637	    -21.90627810	     14.74122367	     53.45909945	      0.00000000	     34.32000000
      2.52000000	      1.39404283	     -8.10125373	    -11.48126362	      0.00000000	      0.00000000	      0.00000000	    -18.54849624	     -4.37464495	     -4.62820217	     -4.22929960	     14.41603505	      4.64292255	    -22.51203725	     15.21655906	     51.72409600	      0.00000000	     34.32000000
      2.53000000	      1.42440338	     -8.07895434	    -11.44027149	      0.00000000	      0.00000000	      0.00000000	    -18.55928026	     -4.40804983	     -4.71281462	     -4.22340122	     14.29198463	      4.68669959	    -22.76863114	     15.64849987	     49.87717258	      0.00000000	     34.32000000
      2.54000000	      1.38041863	     -7.95756803	    -11.43589355	      0.00000000	      0.00000000	      0.00000000	    -18.64337700	     -4.53128668	     -5.03096849	     -4.23456299	     13.95385386	      4.82495602	    -21.50848028	     16.38515786	     43.30705811	      0.00000000	     34.32000000
      2.55000000	      1.33020098	     -7.93520538	    -11.44524467	      0.00000000	      0.00000000	      0.00000000	    -18.72412293	     -4.65074830	     -5.24896958	     -4.28419687	     13.77636044	      4.92092026	    -21.04604242	     16.61994183	     41.98044309	      0.00000000	     34.32000000
      2.56000000	      1.36646915	     -8.03740705	    -11.42159812	      0.00000000	      0.00000000	      0.00000000	    -18.73956083	     -4.66345930	     -5.26208725	     -4.29941015	     13.79463374	      4.92278028	    -21.05788594	     16.58305067	     41.98828466	      0.00000000	     34.32000000
      2.57000000	      1.27174909	     -8.08800202	    -11.38045367	      0.00000000	      0.00000000	      0.00000000	    -18.78004693	     -4.71991852	     -5.25353679	     -4.37414350	     13.90775343	      4.91924567	    -22.07436496	     16.33438791	     42.56842043	      0.00000000	     34.32000000
      2.58000000	      1.44776375	     -8.15635423	    -11.33367004	      0.00000000	      0.00000000	      0.00000000	    -18.77389742	     -4.42988198	     -5.10124996	     -4.24374730	     14.26229212	      4.73610693	    -22.69178643	     15.98209801	     44.54956148	      0.00000000	     34.32000000
      2.59000000	      1.37503121	     -7.96347686	    -11.34567488	      0.00000000	      0.00000000	      0.00000000	    -18.86145288	     -4.57880980	     -5.41364838	     -4.27715861	     13.93342158	      4.88019194	    -21.98137882	     16.43486242	     41.77120510	      0.00000000	     34.32000000
      2.60000000	      1.47109544	     -7.74580220	    -11.27051406	      0.00000000	      0.00000000	      0.00000000	    -19.02445649	     -4.47717707	     -5.81376099	     -4.16794432	     13.77870492	      4.91196456	    -21.27816288	     16.69820452	     39.81434635	      0.00000000	     34.32000000
